<svg id="visual" viewBox="0 0 900 600" width="900" height="600" xmlns="http://www.w3.org/2000/svg" xmlns:xlink="http://www.w3.org/1999/xlink" version="1.1"><rect x="0" y="0" width="900" height="600" fill="#002233"></rect><path d="M0 469L21.5 473C43 477 86 485 128.8 488.3C171.7 491.7 214.3 490.3 257.2 483.5C300 476.7 343 464.3 385.8 458.2C428.7 452 471.3 452 514.2 458.8C557 465.7 600 479.3 642.8 485.5C685.7 491.7 728.3 490.3 771.2 479.8C814 469.3 857 449.7 878.5 439.8L900 430L900 601L878.5 601C857 601 814 601 771.2 601C728.3 601 685.7 601 642.8 601C600 601 557 601 514.2 601C471.3 601 428.7 601 385.8 601C343 601 300 601 257.2 601C214.3 601 171.7 601 128.8 601C86 601 43 601 21.5 601L0 601Z" fill="#0066FF" stroke-linecap="round" stroke-linejoin="miter"></path></svg>